# xmcd
# 
# Track frame offsets:
#     150
#     14175
#     27206
#     56272
#     74573
#     95689
#     108619
#     126455
#     140476
#     151359
#     163998
#     175912
#     189967
# 
# Disc length: 2791
# 
# Revision: 1
# Processed by: cddbd v1.5.2PL0 Copyright (c) Steve Scherf et al.
# Submitted via: fre:ac v1.0.17
# 
DISCID=bf0ae50d
DTITLE=Prekmurski Kavbojci - Al Kazino
DYEAR=2008
DGENRE=Balkan Beats
TTITLE0=Sanjuro
TTITLE1=Daj Mi Ovo
TTITLE2=Do The Balkan Dance
TTITLE3=Red House
TTITLE4=Cafe Krebs
TTITLE5=Oj, Oj, Jelena
TTITLE6=Cem Güler
TTITLE7=Pryc Je Ta Doba
TTITLE8=Soschtschi
TTITLE9=Svjetla Kugla Zemaljska
TTITLE10=Voda
TTITLE11=Arvokas
TTITLE12=Silvana
EXTD=
EXTT0=
EXTT1=
EXTT2=
EXTT3=
EXTT4=
EXTT5=
EXTT6=
EXTT7=
EXTT8=
EXTT9=
EXTT10=
EXTT11=
EXTT12=
PLAYORDER=
